<svg width="14" height="16" viewBox="0 0 14 16" fill="none" xmlns="http://www.w3.org/2000/svg">
<path d="M5.75169 11.4207C5.6717 11.4204 5.59262 11.4022 5.51937 11.3673C5.44611 11.3324 5.38024 11.2814 5.32585 11.2176L2.49085 7.93736C2.38488 7.81452 2.32811 7.65092 2.33303 7.48255C2.33795 7.31418 2.40416 7.15483 2.5171 7.03956C2.63004 6.9243 2.78045 6.86255 2.93525 6.8679C3.09004 6.87326 3.23654 6.94528 3.34252 7.06812L5.74585 9.85349L10.6517 4.01626C10.7015 3.94883 10.7634 3.89318 10.8337 3.85273C10.904 3.81228 10.9811 3.78788 11.0604 3.78104C11.1396 3.7742 11.2193 3.78505 11.2946 3.81294C11.3699 3.84082 11.4391 3.88515 11.498 3.94319C11.557 4.00124 11.6044 4.07178 11.6374 4.15048C11.6703 4.22918 11.6881 4.31438 11.6897 4.40084C11.6913 4.48731 11.6766 4.57321 11.6466 4.65328C11.6166 4.73336 11.5718 4.8059 11.515 4.86646L6.18335 11.2113C6.12948 11.2762 6.06384 11.3284 5.99056 11.3644C5.91727 11.4004 5.83793 11.4196 5.75752 11.4207H5.75169Z" fill="white"/>
</svg>
