<svg width="17" height="16" viewBox="0 0 17 16" fill="none" xmlns="http://www.w3.org/2000/svg">
<path d="M3.54166 8.66683H11.9425L9.37124 11.5735C9.31171 11.6409 9.26687 11.7187 9.23928 11.8024C9.21169 11.8861 9.20189 11.9742 9.21044 12.0614C9.22771 12.2377 9.31867 12.4003 9.46333 12.5135C9.60798 12.6267 9.79447 12.6811 9.98177 12.6648C10.1691 12.6486 10.3418 12.563 10.4621 12.4268L14.0037 8.42683C14.0276 8.39501 14.0489 8.36159 14.0675 8.32683C14.0675 8.2935 14.1029 8.2735 14.1171 8.24016C14.1492 8.16372 14.166 8.08236 14.1667 8.00016C14.166 7.91797 14.1492 7.8366 14.1171 7.76016C14.1171 7.72683 14.0817 7.70683 14.0675 7.6735C14.0489 7.63874 14.0276 7.60531 14.0037 7.5735L10.4621 3.5735C10.3955 3.49824 10.3121 3.43772 10.2178 3.39624C10.1235 3.35476 10.0207 3.33334 9.91666 3.3335C9.75116 3.33319 9.59077 3.38744 9.46333 3.48683C9.3916 3.5428 9.33231 3.61153 9.28886 3.6891C9.2454 3.76666 9.21863 3.85153 9.21007 3.93885C9.20152 4.02617 9.21135 4.11422 9.23901 4.19795C9.26667 4.28169 9.3116 4.35947 9.37124 4.42683L11.9425 7.3335H3.54166C3.3538 7.3335 3.17363 7.40374 3.04079 7.52876C2.90796 7.65378 2.83333 7.82335 2.83333 8.00016C2.83333 8.17698 2.90796 8.34654 3.04079 8.47157C3.17363 8.59659 3.3538 8.66683 3.54166 8.66683Z" fill="#2C2A6D"/>
</svg>
