<svg width="102" height="102" viewBox="0 0 102 102" fill="none" xmlns="http://www.w3.org/2000/svg">
<path d="M50.5 7.99994C42.0943 7.99994 33.8774 10.4809 26.8883 15.129C19.8992 19.7771 14.4518 26.3837 11.2351 34.1132C8.0184 41.8427 7.17676 50.3481 8.81663 58.5538C10.4565 66.7594 14.5042 74.2968 20.448 80.2127C26.3917 86.1286 33.9645 90.1575 42.2087 91.7897C50.4529 93.4219 58.9982 92.5842 66.7641 89.3825C74.5299 86.1808 81.1675 80.7589 85.8375 73.8025C90.5074 66.8461 93 58.6676 93 50.3012C93 44.7461 91.9007 39.2454 89.7649 34.1132C87.6291 28.981 84.4985 24.3177 80.552 20.3897C76.6055 16.4617 71.9204 13.3458 66.7641 11.2199C61.6077 9.09409 56.0812 7.99994 50.5 7.99994V7.99994ZM50.5 84.1422C43.7754 84.1422 37.2019 82.1575 31.6106 78.439C26.0193 74.7205 21.6615 69.4352 19.0881 63.2516C16.5147 57.068 15.8414 50.2637 17.1533 43.6991C18.4652 37.1346 21.7034 31.1047 26.4584 26.372C31.2134 21.6392 37.2716 18.4162 43.8669 17.1104C50.4623 15.8047 57.2986 16.4748 63.5112 19.0362C69.7239 21.5975 75.034 25.935 78.77 31.5001C82.5059 37.0653 84.5 43.6081 84.5 50.3012C84.5 59.2764 80.9179 67.884 74.5416 74.2304C68.1654 80.5768 59.5174 84.1422 50.5 84.1422V84.1422Z" fill="#0C0E2F"/>
<path d="M51.9449 31.0535C50.9035 30.0983 49.6031 29.4688 48.2052 29.2432C46.8074 29.0175 45.3737 29.2058 44.0824 29.7845C42.8289 30.2891 41.755 31.1544 40.998 32.2695C40.241 33.3847 39.8352 34.6992 39.8324 36.045V64.5561C39.8352 65.902 40.241 67.2164 40.998 68.3316C41.755 69.4468 42.8289 70.312 44.0824 70.8167C45.0037 71.2326 46.0033 71.4489 47.0149 71.4512C48.8378 71.4432 50.5935 70.7653 51.9449 69.5476L67.4999 55.2921C68.1956 54.658 68.7512 53.8868 69.1312 53.0275C69.5113 52.1681 69.7076 51.2395 69.7076 50.3006C69.7076 49.3617 69.5113 48.433 69.1312 47.5737C68.7512 46.7143 68.1956 45.9431 67.4999 45.309L51.9449 31.0535ZM48.3749 61.2989V39.3022L60.3174 50.3006L48.3749 61.2989Z" fill="#0C0E2F"/>
</svg>
