<svg width="14" height="16" viewBox="0 0 14 16" fill="none" xmlns="http://www.w3.org/2000/svg">
<path d="M5.75167 11.4207C5.67169 11.4204 5.59261 11.4022 5.51935 11.3673C5.4461 11.3324 5.38023 11.2814 5.32584 11.2176L2.49084 7.93736C2.38486 7.81452 2.32809 7.65092 2.33301 7.48255C2.33794 7.31418 2.40415 7.15483 2.51709 7.03956C2.63003 6.9243 2.78044 6.86255 2.93523 6.8679C3.09003 6.87326 3.23653 6.94528 3.3425 7.06812L5.74584 9.85349L10.6517 4.01626C10.7015 3.94883 10.7634 3.89318 10.8337 3.85273C10.9039 3.81228 10.9811 3.78788 11.0603 3.78104C11.1396 3.7742 11.2193 3.78505 11.2946 3.81294C11.3698 3.84082 11.4391 3.88515 11.498 3.94319C11.557 4.00124 11.6044 4.07178 11.6373 4.15048C11.6703 4.22918 11.6881 4.31438 11.6897 4.40084C11.6913 4.48731 11.6766 4.57321 11.6466 4.65328C11.6165 4.73336 11.5718 4.8059 11.515 4.86646L6.18334 11.2113C6.12946 11.2762 6.06382 11.3284 5.99054 11.3644C5.91726 11.4004 5.83792 11.4196 5.7575 11.4207H5.75167Z" fill="white"/>
</svg>
