<svg width="14" height="16" viewBox="0 0 14 16" fill="none" xmlns="http://www.w3.org/2000/svg">
<path d="M5.75167 11.4205C5.67169 11.4203 5.59261 11.4021 5.51935 11.3672C5.4461 11.3322 5.38023 11.2813 5.32584 11.2175L2.49084 7.93723C2.38486 7.81439 2.32809 7.65079 2.33301 7.48243C2.33794 7.31406 2.40415 7.15471 2.51709 7.03944C2.63003 6.92417 2.78044 6.86242 2.93523 6.86778C3.09003 6.87313 3.23653 6.94515 3.3425 7.06799L5.74584 9.85337L10.6517 4.01614C10.7015 3.9487 10.7634 3.89306 10.8337 3.85261C10.9039 3.81216 10.9811 3.78776 11.0603 3.78092C11.1396 3.77408 11.2193 3.78493 11.2946 3.81282C11.3698 3.8407 11.4391 3.88503 11.498 3.94307C11.557 4.00112 11.6044 4.07166 11.6373 4.15036C11.6703 4.22906 11.6881 4.31425 11.6897 4.40072C11.6913 4.48719 11.6766 4.57309 11.6466 4.65316C11.6165 4.73323 11.5718 4.80578 11.515 4.86634L6.18334 11.2112C6.12946 11.2761 6.06382 11.3282 5.99054 11.3643C5.91726 11.4003 5.83792 11.4195 5.7575 11.4205H5.75167Z" fill="white"/>
</svg>
