<svg width="14" height="16" viewBox="0 0 14 16" fill="none" xmlns="http://www.w3.org/2000/svg">
<path d="M5.75169 11.4205C5.6717 11.4203 5.59262 11.4021 5.51937 11.3672C5.44611 11.3322 5.38024 11.2813 5.32585 11.2175L2.49085 7.93723C2.38488 7.81439 2.32811 7.65079 2.33303 7.48243C2.33795 7.31406 2.40416 7.15471 2.5171 7.03944C2.63004 6.92417 2.78045 6.86242 2.93525 6.86778C3.09004 6.87313 3.23654 6.94515 3.34252 7.06799L5.74585 9.85337L10.6517 4.01614C10.7015 3.9487 10.7634 3.89306 10.8337 3.85261C10.904 3.81216 10.9811 3.78776 11.0604 3.78092C11.1396 3.77408 11.2193 3.78493 11.2946 3.81282C11.3699 3.8407 11.4391 3.88503 11.498 3.94307C11.557 4.00112 11.6044 4.07166 11.6374 4.15036C11.6703 4.22906 11.6881 4.31425 11.6897 4.40072C11.6913 4.48719 11.6766 4.57309 11.6466 4.65316C11.6166 4.73323 11.5718 4.80578 11.515 4.86634L6.18335 11.2112C6.12948 11.2761 6.06384 11.3282 5.99056 11.3643C5.91727 11.4003 5.83793 11.4195 5.75752 11.4205H5.75169Z" fill="white"/>
</svg>
