<svg width="17" height="16" viewBox="0 0 17 16" fill="none" xmlns="http://www.w3.org/2000/svg">
<path d="M3.54167 8.66677H11.9425L9.37125 11.5734C9.31172 11.6408 9.26687 11.7186 9.23928 11.8024C9.21169 11.8861 9.20189 11.9741 9.21044 12.0614C9.22771 12.2377 9.31868 12.4003 9.46333 12.5134C9.60799 12.6266 9.79448 12.681 9.98178 12.6648C10.1691 12.6485 10.3419 12.5629 10.4621 12.4268L14.0037 8.42677C14.0276 8.39495 14.0489 8.36153 14.0675 8.32677C14.0675 8.29344 14.1029 8.27344 14.1171 8.2401C14.1492 8.16366 14.166 8.0823 14.1667 8.0001C14.166 7.91791 14.1492 7.83654 14.1171 7.7601C14.1171 7.72677 14.0817 7.70677 14.0675 7.67344C14.0489 7.63868 14.0276 7.60525 14.0037 7.57344L10.4621 3.57344C10.3955 3.49818 10.3121 3.43766 10.2178 3.39618C10.1235 3.3547 10.0207 3.33328 9.91667 3.33344C9.75116 3.33313 9.59077 3.38738 9.46333 3.48677C9.39161 3.54274 9.33232 3.61147 9.28886 3.68903C9.2454 3.7666 9.21863 3.85147 9.21008 3.93879C9.20152 4.02611 9.21136 4.11415 9.23901 4.19789C9.26667 4.28163 9.31161 4.3594 9.37125 4.42677L11.9425 7.33344H3.54167C3.3538 7.33344 3.17364 7.40367 3.0408 7.5287C2.90796 7.65372 2.83333 7.82329 2.83333 8.0001C2.83333 8.17691 2.90796 8.34648 3.0408 8.47151C3.17364 8.59653 3.3538 8.66677 3.54167 8.66677Z" fill="#2C2A6D"/>
</svg>
