<svg width="167" height="62" viewBox="0 0 167 62" fill="none" xmlns="http://www.w3.org/2000/svg">
<path d="M23.8273 15.4442C21.8023 13.8396 18.2921 12.9704 13.162 12.9704C8.70679 12.9704 6.81672 12.235 6.0742 11.7001C5.46668 11.2321 5.12917 10.2961 5.12917 8.95896C5.12917 7.22065 5.80419 6.61893 6.27671 6.28464C7.08674 5.68292 8.9768 5.01435 13.162 5.01435C17.2796 5.01435 19.1697 5.74978 19.9797 6.35151C20.7897 6.95323 21.1272 7.88923 21.1272 9.29325V10.6304H22.4773C23.4898 10.6304 24.3674 10.2293 24.9749 9.42697C25.5824 8.69153 25.8524 7.75552 25.6499 6.81951C25.3124 5.0812 24.5024 3.67718 23.2873 2.60746C21.2622 0.869149 17.8871 0 13.162 0C8.43678 0 5.12916 0.802298 3.03659 2.5406C1.28152 4.01148 0.336491 6.21778 0.336491 9.09268C0.336491 12.0344 1.14652 14.2407 2.76658 15.5779C4.72415 17.1825 8.09927 17.9848 13.0944 17.9848C17.7521 17.9848 19.7097 18.7202 20.5197 19.3219C21.1947 19.7899 21.5323 20.726 21.5323 22.13C21.5323 23.8683 20.7897 24.5369 20.3172 24.938C19.4397 25.5397 17.4821 26.2752 13.0944 26.2752C8.70679 26.2752 6.74922 25.5397 5.87169 24.938C4.99416 24.3363 4.58915 23.3334 4.58915 21.8625V20.5254H3.2391C2.22656 20.5254 1.34903 20.9265 0.741509 21.7288C0.133988 22.4643 -0.136022 23.4671 0.0664851 24.4032C0.4715 26.2083 1.28153 27.6792 2.56407 28.7489C4.72415 30.4872 8.09927 31.3564 13.027 31.3564C17.9546 31.3564 21.3297 30.5541 23.4898 28.8826C25.3124 27.4118 26.2574 25.2054 26.2574 22.2637C26.3924 18.9877 25.5149 16.7813 23.8273 15.4442Z" fill="white"/>
<path d="M48.9383 6.75266V7.0201C46.8457 4.88064 43.8756 3.81091 40.0279 3.81091C35.9103 3.81091 32.7377 5.14807 30.5776 7.75553C28.62 10.0956 27.675 13.3716 27.675 17.4499C27.675 21.5283 28.6875 24.7374 30.5776 27.1443C32.7377 29.7518 35.9103 31.0889 40.0279 31.0889C43.8756 31.0889 46.8457 30.0192 48.9383 27.8798V30.621H53.5959V4.27892H51.4358C50.0858 4.27892 48.9383 5.4155 48.9383 6.75266ZM47.0482 23.534C45.6981 25.0717 43.5381 25.874 40.6355 25.874C37.7328 25.874 35.5728 25.1386 34.2227 23.534C32.9402 22.13 32.3327 20.0574 32.3327 17.4499C32.3327 14.7756 32.9402 12.7699 34.2227 11.3659C35.5728 9.82813 37.7328 9.02583 40.6355 9.02583C43.5381 9.02583 45.6981 9.76127 47.0482 11.3659C48.3307 12.7699 48.9383 14.8425 48.9383 17.4499C48.9383 20.0574 48.3307 22.13 47.0482 23.534Z" fill="white"/>
<path d="M78.2344 4.27893L68.514 24.1357L58.7937 4.27893H53.6635L65.1389 28.2141C65.814 29.6849 67.3665 30.621 68.9866 30.621H70.8091L83.4321 4.27893H78.2344V4.27893Z" fill="white"/>
<path d="M93.8949 3.74402C89.5748 3.74402 86.1996 5.08118 83.9721 7.7555C81.947 10.0955 80.9344 13.3716 80.9344 17.4499C80.9344 21.5282 81.947 24.8043 83.9721 27.1443C86.1996 29.7518 89.5748 31.0889 93.8949 31.0889C99.6326 31.0889 103.413 29.2169 105.37 25.3391C105.843 24.4031 105.775 23.4003 105.235 22.4642C104.695 21.5951 103.683 20.9934 102.67 21.0602H101.725L101.388 21.9962C100.375 25.0048 98.1476 26.2083 93.8274 26.2083C91.0598 26.2083 88.9672 25.4729 87.6172 24.002C86.6046 22.9323 85.9971 21.5282 85.7271 19.7231H106.653L106.788 18.5865C106.788 18.3859 106.855 18.1853 106.855 17.9179V17.4499C106.855 13.3716 105.843 10.0955 103.818 7.7555C101.59 5.08118 98.2826 3.74402 93.8949 3.74402ZM85.7946 15.1099C86.0646 13.3047 86.6722 11.9007 87.6847 10.831C89.1022 9.36009 91.1273 8.62465 93.8949 8.62465C96.6625 8.62465 98.7551 9.36009 100.105 10.831C101.118 11.9007 101.725 13.3047 101.995 15.1099H85.7946Z" fill="white"/>
<path d="M123.866 19.1212L112.458 0.334106H111.513C109.96 0.334106 108.745 1.6044 108.745 3.07528V30.6208H113.538V10.9645L123.866 28.0802L134.261 10.9645V30.6208H136.084C137.704 30.6208 138.987 29.3505 138.987 27.7459V0.334106H135.274L123.866 19.1212Z" fill="white"/>
<path d="M163.827 7.7555C161.6 5.08118 158.225 3.74402 153.904 3.74402C149.584 3.74402 146.209 5.08118 143.982 7.7555C141.957 10.0955 140.944 13.3716 140.944 17.4499C140.944 21.5282 141.957 24.8043 143.982 27.1443C146.209 29.7518 149.584 31.0889 153.904 31.0889C159.642 31.0889 163.557 28.8826 165.515 24.5368C165.92 23.6677 165.852 22.6648 165.312 21.9294C164.772 21.1271 163.895 20.6591 162.95 20.6591H162.005L161.667 21.5951C160.587 24.8043 158.09 26.2752 153.972 26.2752C151.204 26.2752 149.112 25.5397 147.762 24.0688C146.749 22.9991 146.142 21.5951 145.872 19.7899H166.797L166.932 18.6533C166.932 18.4528 167 18.2522 167 17.9848V17.5168C166.865 13.3716 165.852 10.0955 163.827 7.7555ZM145.737 15.1099C146.007 13.3047 146.614 11.9007 147.627 10.831C149.044 9.36009 151.069 8.62465 153.837 8.62465C156.605 8.62465 158.697 9.36009 160.047 10.831C161.06 11.9007 161.667 13.3047 161.937 15.1099H145.737Z" fill="white"/>
<path d="M13.0272 39.045C18.8999 39.045 22.2075 41.6525 23.0175 46.8005H23.22C24.1651 46.8005 24.8401 45.9314 24.6376 44.9954C23.4225 39.3793 19.5074 36.5713 13.0272 36.5713C8.842 36.5713 5.73689 37.7747 3.71182 40.1816C1.88925 42.3211 1.01172 45.3297 1.01172 49.2074C1.01172 53.0852 1.88925 56.0269 3.71182 58.1664C5.73689 60.5733 8.842 61.7767 13.0272 61.7767C19.5074 61.7767 23.355 58.9687 24.6376 53.4195C24.8401 52.4835 24.1651 51.6143 23.1525 51.6143H23.0175C22.275 56.7624 18.8999 59.3699 13.0272 59.3699C6.27691 59.3699 2.90179 55.9601 2.90179 49.2074C2.90179 42.4548 6.27691 39.045 13.0272 39.045Z" fill="#977ADC"/>
<path d="M38.8803 40.1147C35.2352 40.1147 32.4676 41.1176 30.645 43.1902C28.9574 45.0622 28.1474 47.6697 28.1474 50.9457C28.1474 54.2886 28.9574 56.8961 30.645 58.7013C32.4676 60.7739 35.2352 61.7767 38.8803 61.7767C42.5254 61.7767 45.293 60.7739 47.1156 58.7013C48.8031 56.8292 49.6132 54.2218 49.6132 50.9457C49.6132 47.6028 48.8031 44.9954 47.1156 43.1902C45.293 41.1176 42.5254 40.1147 38.8803 40.1147ZM45.7655 57.0967C44.2805 58.7013 41.9854 59.5036 38.8803 59.5036C35.7752 59.5036 33.5476 58.7013 31.995 57.0967C30.645 55.6258 29.97 53.5532 29.97 50.9457C29.97 48.2714 30.645 46.2657 31.995 44.7948C33.4801 43.1902 35.7752 42.3879 38.8803 42.3879C41.9854 42.3879 44.213 43.1902 45.7655 44.7948C47.1156 46.2657 47.7906 48.3383 47.7906 50.9457C47.8581 53.6201 47.1831 55.6258 45.7655 57.0967Z" fill="#977ADC"/>
<path d="M64.5313 40.048C59.9411 40.048 56.9035 42.2543 55.4185 46.6V40.516H55.0809C54.2709 40.516 53.5959 41.1846 53.5959 41.9868V61.3757H55.4185V51.6144C55.4185 48.9401 56.0935 46.7338 57.511 45.0623C59.0636 43.1903 61.2237 42.2543 63.9913 42.2543C66.7589 42.2543 68.7839 43.1903 70.134 45.0623C71.2815 46.6669 71.8215 48.8732 71.8215 51.6144V61.3757H72.2941C73.0366 61.3757 73.6441 60.7739 73.6441 60.0385V51.6144C73.6441 48.1378 72.9691 45.3966 71.619 43.4577C70.0665 41.1845 67.7039 40.048 64.5313 40.048Z" fill="#977ADC"/>
<path d="M93.2873 40.5159H83.432V34.6324L81.6094 35.301V40.5828H76.4117V42.7891H81.6094V52.1492C81.6094 55.4253 82.2169 57.8322 83.3645 59.3699C84.7145 61.0413 86.9421 61.9105 90.1822 61.9105C92.2073 61.9105 93.9623 61.7099 95.3799 61.2419C95.3799 60.1722 94.3674 59.303 93.2873 59.5036C92.4773 59.6373 91.5997 59.7042 90.6547 59.7042C87.8871 59.7042 85.9296 59.0356 84.8495 57.7653C83.9045 56.6287 83.3645 54.7567 83.3645 52.1492V42.856H95.3799V42.7891C95.4474 41.4519 94.5024 40.5159 93.2873 40.5159Z" fill="#977ADC"/>
<path d="M108.948 40.048C105.303 40.048 102.535 41.0508 100.713 43.1234C99.025 44.9954 98.215 47.6029 98.215 50.8789C98.215 54.2218 99.025 56.8293 100.713 58.6345C102.535 60.7071 105.303 61.7099 108.948 61.7099C113.673 61.7099 116.846 60.0385 118.466 56.6956C118.871 55.8264 118.196 54.8236 117.251 54.8236C116.103 58.0996 113.336 59.7711 108.948 59.7711C106.045 59.7711 103.818 59.0356 102.265 57.4979C100.915 56.1607 100.173 54.2219 100.038 51.7481H119.613C119.613 51.6144 119.613 51.4807 119.613 51.347V50.9458C119.613 47.6029 118.803 44.9954 117.116 43.1903C115.361 41.1177 112.593 40.048 108.948 40.048ZM100.105 50.0767C100.24 47.6029 100.915 45.7309 102.333 44.3269C103.885 42.7891 106.113 42.0537 109.015 42.0537C111.918 42.0537 114.146 42.7891 115.698 44.3269C117.048 45.664 117.791 47.6029 117.926 50.0767H100.105Z" fill="#977ADC"/>
<path d="M134.599 40.048C130.009 40.048 126.971 42.2543 125.486 46.6V40.516H125.351C124.473 40.516 123.731 41.2514 123.731 42.1206V61.3757H125.553V51.6144C125.553 48.9401 126.228 46.7338 127.646 45.0623C129.199 43.1903 131.359 42.2543 134.126 42.2543C136.894 42.2543 138.919 43.1903 140.269 45.0623C141.417 46.6669 141.957 48.8732 141.957 51.6144V61.3757H142.294C143.104 61.3757 143.779 60.7071 143.779 59.9048V51.6144C143.779 48.1378 143.104 45.3966 141.754 43.4577C140.134 41.1845 137.771 40.048 134.599 40.048Z" fill="#977ADC"/>
<path d="M165.515 42.722V42.5883C165.515 41.4517 164.57 40.5826 163.49 40.5826H153.567V34.6991L151.744 35.3677V40.6494H146.479V42.8558H151.677V52.2159C151.677 55.4919 152.284 57.8988 153.432 59.4365C154.782 61.108 157.01 61.9771 160.25 61.9771C162.275 61.9771 164.03 61.7766 165.447 61.3085C165.447 60.2388 164.435 59.3697 163.355 59.5702C162.545 59.704 161.667 59.7708 160.722 59.7708C157.955 59.7708 155.997 59.1022 154.917 57.8319C153.972 56.6953 153.432 54.8233 153.432 52.2159V42.9226H165.515V42.722Z" fill="#977ADC"/>
</svg>
