<svg width="13" height="10" viewBox="0 0 13 10" fill="none" xmlns="http://www.w3.org/2000/svg">
<path d="M1.54165 5.66683H9.94248L7.37123 8.5735C7.3117 8.64091 7.26685 8.7187 7.23926 8.80242C7.21167 8.88614 7.20187 8.97416 7.21042 9.06145C7.22769 9.23773 7.31866 9.40034 7.46331 9.5135C7.60797 9.62666 7.79446 9.6811 7.98176 9.66484C8.16906 9.64859 8.34183 9.56298 8.46206 9.42683L12.0037 5.42683C12.0276 5.39501 12.0489 5.36159 12.0675 5.32683C12.0675 5.2935 12.1029 5.2735 12.1171 5.24016C12.1492 5.16372 12.166 5.08236 12.1666 5.00016C12.166 4.91797 12.1492 4.8366 12.1171 4.76016C12.1171 4.72683 12.0816 4.70683 12.0675 4.6735C12.0489 4.63874 12.0276 4.60531 12.0037 4.5735L8.46206 0.573497C8.39546 0.498242 8.31206 0.437722 8.2178 0.396242C8.12353 0.354761 8.02071 0.333338 7.91665 0.333497C7.75114 0.333193 7.59075 0.387443 7.46331 0.486831C7.39159 0.542797 7.3323 0.61153 7.28884 0.689095C7.24538 0.76666 7.21861 0.851532 7.21006 0.93885C7.2015 1.02617 7.21134 1.11422 7.23899 1.19795C7.26665 1.28169 7.31159 1.35947 7.37123 1.42683L9.94248 4.3335H1.54165C1.35378 4.3335 1.17362 4.40374 1.04078 4.52876C0.907941 4.65378 0.833313 4.82335 0.833313 5.00016C0.833313 5.17698 0.907941 5.34654 1.04078 5.47157C1.17362 5.59659 1.35378 5.66683 1.54165 5.66683Z" fill="#2C2A6D"/>
</svg>
